<?xml version="1.0" encoding="utf-8" standalone="yes"?>
<!DOCTYPE svg PUBLIC "-//W3C//DTD SVG 1.1//EN" "http://www.w3.org/Graphics/SVG/1.1/DTD/svg11.dtd">
<svg xmlns="http://www.w3.org/2000/svg" xmlns:xlink="http://www.w3.org/1999/xlink" xmlns:dc="http://purl.org/dc/elements/1.1/" xmlns:cc="http://web.resource.org/cc/" xmlns:rdf="http://www.w3.org/1999/02/22-rdf-syntax-ns#" xmlns:sodipodi="http://sodipodi.sourceforge.net/DTD/sodipodi-0.dtd" xmlns:inkscape="http://www.inkscape.org/namespaces/inkscape" version="1.1" baseProfile="full" width="1440px" height="1000px" viewBox="0 0 1440 1000" preserveAspectRatio="xMidYMid meet" id="svg_document" style="zoom: 0.5;"><!-- Created with macSVG - https://macsvg.org/ - https://github.com/dsward2/macsvg/ --><title id="svg_document_title">Untitled.svg</title><defs id="svg_document_defs"></defs><g id="main_group"><rect height="1000px" x="0px" y="0px" id="background_rect" width="1440px" fill="#ffffff" visibility="hidden"></rect></g><g id="g1" transform=""><polyline points="1474,82 776,82 -30,428 " stroke="#D12625" id="red-t" stroke-width="8px" fill="none" transform=""></polyline><polyline points="1475.65625,90.015625 777.65625,90.015625 -28.34375,436.015625 " stroke="antiquewhite" id="space1" stroke-width="8px" fill="none" transform="" visibility="hidden"></polyline><polyline points="1477.5,98 779.5,98 -26.5,444 " stroke="#DA6241" stroke-width="8px" id="orange-t" fill="none" transform=""></polyline><polyline points="1479.65625,106.015625 781.65625,106.015625 -24.34375,452.015625 " stroke="antiquewhite" stroke-width="8px" id="space2" fill="none" transform="" visibility="hidden"></polyline><polyline points="1481.25,114 783.25,114 -22.75,460 " stroke="#f1cb29" stroke-width="8px" id="yellow-t" fill="none" transform=""></polyline><polyline points="1482.90625,122.015625 784.90625,122.015625 -21.09375,468.015625 " stroke="antiquewhite" stroke-width="8px" id="space3" fill="none" transform="" visibility="hidden"></polyline><polyline points="1484.5,130 786.5,130 -19.5,476 " stroke="#4bb249" stroke-width="8px" id="green-t" fill="none" transform=""></polyline><polyline points="1486.40625,138.015625 788.40625,138.015625 -17.59375,484.015625 " stroke="antiquewhite" stroke-width="8px" id="space4" fill="none" transform="" visibility="hidden"></polyline><polyline points="1488.25,145.75 790.25,145.75 -15.75,491.75 " stroke="#009eda" stroke-width="8px" id="blue-t" fill="none" transform=""></polyline></g><g id="g2" transform="rotate(180 781.125 684.875)"><polyline points="1590,418 892,418 86,764 " stroke="#D12625" stroke-width="8px" id="red-b" fill="none" transform="" visibility="visible"></polyline><polyline points="1591.65625,426.015625 893.65625,426.015625 87.65625,772.015625 " stroke="antiquewhite" stroke-width="8px" id="space5" fill="none" transform="" visibility="hidden"></polyline><polyline points="1593.5,434 895.5,434 89.5,780 " stroke="#DA6241" stroke-width="8px" id="orange-b" fill="none" transform=""></polyline><polyline points="1595.65625,442.015625 897.65625,442.015625 91.65625,788.015625 " stroke="antiquewhite" stroke-width="8px" id="space6" fill="none" transform="" visibility="hidden"></polyline><polyline points="1597.25,450 899.25,450 93.25,796 " stroke="#f1cb29" stroke-width="8px" id="yellow-b" fill="none" transform=""></polyline><polyline points="1598.90625,458.015625 900.90625,458.015625 94.90625,804.015625 " stroke="antiquewhite" stroke-width="8px" id="space7" fill="none" transform="" visibility="hidden"></polyline><polyline points="1600.5,466 902.5,466 96.5,812 " stroke="#4bb249" stroke-width="8px" id="green-b" fill="none" transform=""></polyline><polyline points="1602.40625,474.015625 904.40625,474.015625 98.40625,820.015625 " stroke="antiquewhite" stroke-width="8px" id="space8" fill="none" transform="" visibility="hidden"></polyline><polyline points="1604.25,481.75 906.25,481.75 100.25,827.75 " stroke="#009eda" stroke-width="8px" id="blue-b" fill="none" transform=""></polyline></g></svg>